<?xml version="1.0" encoding="utf-8"?>
<!-- Generator: Adobe Illustrator 24.0.0, SVG Export Plug-In . SVG Version: 6.00 Build 0)  -->
<svg version="1.1" id="Camada_2" xmlns="http://www.w3.org/2000/svg" xmlns:xlink="http://www.w3.org/1999/xlink" x="0px" y="0px"
	 viewBox="0 0 32 32" style="enable-background:new 0 0 32 32;" xml:space="preserve">
<style type="text/css">
	.st0{clip-path:url(#SVGID_2_);}
	.st1{clip-path:url(#SVGID_4_);}
	.st2{clip-path:url(#SVGID_4_);fill:none;stroke:#050505;stroke-width:5.239899e-02;}
	.st3{clip-path:url(#SVGID_4_);fill:#FFFFFF;}
	.st4{font-family:'CirceRoundedW03-Bold';}
	.st5{font-size:7.5996px;}
	.st6{font-size:8.3833px;}
	.st7{clip-path:url(#SVGID_6_);}
	.st8{clip-path:url(#SVGID_6_);fill:none;stroke:#050505;stroke-width:0.6288;stroke-linecap:round;}
</style>
<g>
	<g>
		<defs>
			<rect id="SVGID_1_" x="0" y="-1.3" width="32.1" height="41.5"/>
		</defs>
		<clipPath id="SVGID_2_">
			<use xlink:href="#SVGID_1_"  style="overflow:visible;"/>
		</clipPath>
		<g class="st0">
			<defs>
				<rect id="SVGID_3_" x="0" y="-1.3" width="32.1" height="41.5"/>
			</defs>
			<clipPath id="SVGID_4_">
				<use xlink:href="#SVGID_3_"  style="overflow:visible;"/>
			</clipPath>
			<path class="st1" d="M31.2,16.2c0,8.5-6.9,15.3-15.3,15.3c-8.5,0-15.3-6.9-15.3-15.3c0-8.5,6.9-15.3,15.3-15.3
				C24.4,0.9,31.2,7.8,31.2,16.2"/>
			<circle class="st2" cx="15.9" cy="16.2" r="15.3"/>
			<path class="st3" d="M30.7,16.2c0,8.1-6.6,14.8-14.8,14.8S1.2,24.3,1.2,16.2S7.8,1.4,16,1.4S30.7,8,30.7,16.2"/>
		</g>
		<g class="st0">
			<text transform="matrix(1 0 0 1 5.3589 15.5498)" class="st4 st5">Studio</text>
		</g>
		<g class="st0">
			<text transform="matrix(1 0 0 1.0849 9.0137 23.6445)" class="st4 st6">404</text>
		</g>
		<g class="st0">
			<defs>
				<rect id="SVGID_5_" x="0" y="-1.3" width="32.1" height="41.5"/>
			</defs>
			<clipPath id="SVGID_6_">
				<use xlink:href="#SVGID_5_"  style="overflow:visible;"/>
			</clipPath>
			<line class="st7" x1="4.5" y1="16.3" x2="27.6" y2="16.3"/>
			<line class="st8" x1="4.5" y1="16.3" x2="27.6" y2="16.3"/>
		</g>
	</g>
</g>
</svg>
