<svg id="Camada_4" data-name="Camada 4" xmlns="http://www.w3.org/2000/svg" viewBox="0 0 37.5 35.03"><defs><style>.cls-1,.cls-3,.cls-4,.cls-5{fill:none;}.cls-1,.cls-2,.cls-3,.cls-4,.cls-5{stroke:#000;}.cls-1,.cls-3,.cls-4{stroke-linecap:round;}.cls-1{stroke-linejoin:round;}.cls-2,.cls-5{stroke-miterlimit:10;}.cls-2{stroke-width:0.25px;}.cls-3,.cls-4{stroke-linejoin:bevel;}.cls-3{stroke-width:2px;}</style></defs><title>Fast-shipping</title><line class="cls-1" x1="37" y1="27.27" x2="34.31" y2="27.27"/><line class="cls-1" x1="24.7" y1="27.23" x2="13.5" y2="27.23"/><line class="cls-1" x1="2.84" y1="27.23" x2="1" y2="27.23"/><path class="cls-2" d="M2.45,30.22V22.78H13.56V18.84h2.59V14.36h1.44v-3H2.45V5.31A1.62,1.62,0,0,1,4.24,3.52H23.5A2.34,2.34,0,0,1,26,6V22.24H37V30.4H35.84l-1.61-2L32.15,27.3l-3,.27L26.5,29.28l-.36,1.16-12,.18L13,28.85,10.11,27l-2.24.26L5,29.31l-.75,1.31H2.44Z" transform="translate(-1 -3.39)"/><line class="cls-3" x1="1" y1="7.43" x2="17" y2="7.43"/><line class="cls-3" x1="4" y1="11.37" x2="19.99" y2="11.37"/><line class="cls-3" x1="1" y1="15.94" x2="16.83" y2="15.94"/><polygon class="cls-4" points="35.63 20.51 35.63 15.89 29.51 9.78 24.96 9.78 24.96 19.21 24.96 20.46 35.63 20.51"/><circle class="cls-5" cx="8.21" cy="29.2" r="5.33"/><circle class="cls-5" cx="8.17" cy="29.15" r="3.58"/><polygon class="cls-2" points="9.5 32.48 10.72 33.9 12.51 32.34 13.54 30.02 13 28.61 13 26.61 12 25.61 11 27.61 12 28.61 12 29.61 12 30.61 11 31.61 9.5 32.48"/><polygon class="cls-2" points="11.33 27.37 10.07 26.11 8 25.61 7 23.61 11 23.61 12.46 26.07 11.33 27.37"/><polygon class="cls-2" points="8 25.61 6.3 26.09 5 27.61 2.84 27.23 2.9 26.99 3 26.61 5 23.61 8 23.61 8 25.61"/><polygon class="cls-2" points="3 30.61 3 26.61 5.14 27.45 4.59 29.32 5 30.61 5 31.61 6.46 32.3 7.79 32.72 10 32.61 10.56 33.72 8 34.61 5.92 34.01 4 32.61 3 30.61"/><circle class="cls-5" cx="30.21" cy="29.2" r="5.33"/><circle class="cls-5" cx="30.17" cy="29.15" r="3.58"/><polygon class="cls-2" points="31.5 32.48 32.72 33.9 34.51 32.34 35.54 30.02 35 28.61 35 26.61 34 25.61 33 27.61 34 28.61 34 29.61 34 30.61 33 31.61 31.5 32.48"/><polygon class="cls-2" points="33.33 27.37 32.07 26.11 30 25.61 29 23.61 33 23.61 34.46 26.07 33.33 27.37"/><polygon class="cls-2" points="30 25.61 28.3 26.09 27 27.61 24.84 27.23 24.9 26.99 25 26.61 27 23.61 30 23.61 30 25.61"/><polygon class="cls-2" points="25 30.61 25 26.61 27.14 27.45 26.59 29.32 27 30.61 27 31.61 28.46 32.3 29.79 32.72 32 32.61 32.56 33.72 30 34.61 27.92 34.01 26 32.61 25 30.61"/></svg>