<svg id="Camada_2" data-name="Camada 2" xmlns="http://www.w3.org/2000/svg" viewBox="0 0 487.5 389.5"><defs><style>.cls-1,.cls-2,.cls-4,.cls-5{fill:none;}.cls-1,.cls-2,.cls-3,.cls-4,.cls-5{stroke:#000;}.cls-1,.cls-3{stroke-miterlimit:10;}.cls-1,.cls-5{stroke-width:10px;}.cls-2,.cls-4,.cls-5{stroke-linecap:round;}.cls-2{stroke-linejoin:round;}.cls-2,.cls-4{stroke-width:17px;}.cls-4,.cls-5{stroke-linejoin:bevel;}</style></defs><title>truk</title><circle class="cls-1" cx="146.5" cy="325" r="59.5"/><circle class="cls-1" cx="146" cy="324.5" r="40"/><circle class="cls-1" cx="390" cy="324.5" r="40"/><circle class="cls-1" cx="389.5" cy="325" r="59.5"/><line class="cls-2" x1="479" y1="303.5" x2="449" y2="303.5"/><line class="cls-2" x1="330.5" y1="303" x2="205.5" y2="303"/><line class="cls-2" x1="86.5" y1="303" x2="67.5" y2="303"/><path class="cls-3" d="M82,357V274H206V230h29V180h16V147H82V79s-2-20,20-20H317s27.5-1,27.5,27.5V268H468v91H454.74l-18-22.67L413.5,324.5l-32.95,2.93L350.5,346.5l-4,13-133.7,2-12.89-19.72L167.5,321.5l-25,3-31.94,22.43L102.2,361.5H82Z" transform="translate(-11 -58.5)"/><line class="cls-4" x1="8.5" y1="82" x2="244.5" y2="82"/><line class="cls-4" x1="38.5" y1="126" x2="244.5" y2="126"/><line class="cls-4" x1="8.5" y1="177" x2="231.5" y2="177"/><polygon class="cls-5" points="452.5 228 452.5 176.5 384.25 108.25 333.5 108.25 333.5 213.5 333.5 227.5 452.5 228"/><polygon class="cls-3" points="90.5 280 86.5 337 105.5 337 113.5 274 90.5 280"/><polygon class="cls-3" points="105.5 307 122.26 292.31 146.5 282 160.33 287.15 173.5 262 144.5 253 102.5 262 105.5 307"/><polygon class="cls-3" points="155.5 276 168.73 291.59 182.5 306 186.5 325 184.01 337 195.72 358.44 208.5 332 200.5 291 191.5 269 155.5 276"/><polygon class="cls-3" points="84.5 328 97.28 358.44 114.75 375.33 146.5 384 145.5 364 117.5 356 108 337 99.5 328 84.5 328"/><polygon class="cls-3" points="185.5 334 197.5 358 178 375.49 148.54 384.5 140.24 382.29 140.24 364.09 171.5 358 179.5 351 185.5 334"/><polygon class="cls-3" points="330.5 289 330.5 321 335.41 349.82 352.08 371.26 373.95 382.45 380.71 364.5 355.5 352 347.5 331 350.5 311 364.13 294.01 376.5 285 371.5 261 330.5 289"/><polygon class="cls-3" points="376.5 359 376.5 385 410.29 382.45 433.86 364.66 448.5 344 428.86 334 411.16 358.44 389.5 367 376.5 359"/><polygon class="cls-3" points="369 286.5 390 284.5 413 288.5 427 303.5 430 319.5 430 334.5 437 345.5 449 339.5 449 313.72 446 294.5 421 269.5 374 258.5 361.43 274.93 369 286.5"/></svg>