<?xml version="1.0" encoding="utf-8"?>
<!-- Generator: Adobe Illustrator 24.0.0, SVG Export Plug-In . SVG Version: 6.00 Build 0)  -->
<svg version="1.1" id="Camada_1" xmlns="http://www.w3.org/2000/svg" xmlns:xlink="http://www.w3.org/1999/xlink" x="0px" y="0px"
	 viewBox="0 0 200 50" style="enable-background:new 0 0 200 50;" xml:space="preserve">
<style type="text/css">
	.st0{fill:#4D4D4D;}
</style>
<g>
	<path class="st0" d="M12.89,30.41l1.22-1.29c0.27-0.27,0.58-0.41,0.92-0.41c0.37,0,0.72,0.14,1.04,0.41
		c1.68,1.38,3.24,2.07,4.7,2.07c0.79,0,1.5-0.15,2.13-0.46c0.63-0.31,1.06-0.7,1.29-1.18s0.35-0.94,0.35-1.39
		c0-0.74-0.27-1.42-0.81-2.04c-0.54-0.62-1.7-1.33-3.46-2.13c-1.76-0.8-3.07-1.47-3.92-2c-0.85-0.53-1.54-1.13-2.07-1.79
		c-0.53-0.67-0.91-1.37-1.13-2.11c-0.22-0.74-0.33-1.48-0.33-2.22c0-1.21,0.32-2.39,0.96-3.53c0.64-1.15,1.61-2.03,2.9-2.66
		c1.29-0.63,2.69-0.94,4.2-0.94c2.24,0,4.3,0.53,6.18,1.59c0.2,0.1,0.36,0.27,0.48,0.5c0.12,0.23,0.19,0.46,0.19,0.68
		c0,0.22-0.06,0.43-0.19,0.63l-0.7,1.22c-0.15,0.22-0.33,0.4-0.55,0.54c-0.22,0.14-0.44,0.2-0.67,0.2c-0.25,0-0.47-0.05-0.67-0.15
		c-1.31-0.64-2.54-0.96-3.7-0.96c-1.11,0-1.99,0.27-2.65,0.8c-0.65,0.53-0.98,1.21-0.98,2.05c0,0.62,0.15,1.17,0.46,1.65
		s0.76,0.92,1.37,1.31c0.6,0.4,1.61,0.9,3.02,1.52c1.41,0.62,2.53,1.18,3.37,1.68c0.84,0.51,1.52,1.09,2.05,1.76
		c0.53,0.67,0.91,1.37,1.13,2.11c0.22,0.74,0.33,1.49,0.33,2.26c0,1.06-0.22,2.04-0.67,2.94c-0.44,0.9-1.06,1.68-1.85,2.33
		c-0.79,0.65-1.71,1.16-2.77,1.52s-2.18,0.54-3.37,0.54c-1.43,0-2.76-0.24-4-0.72c-1.23-0.48-2.45-1.29-3.66-2.42
		c-0.32-0.27-0.48-0.63-0.48-1.07C12.56,30.9,12.67,30.63,12.89,30.41z"/>
	<path class="st0" d="M42.45,31.82l0.37,0.67c0.12,0.2,0.18,0.41,0.18,0.63c0,0.22-0.06,0.45-0.17,0.69
		c-0.11,0.23-0.27,0.4-0.46,0.5c-1.26,0.74-2.65,1.11-4.18,1.11c-1.83,0-3.15-0.57-3.96-1.7c-0.81-1.13-1.22-2.8-1.22-4.99V15.13
		c0-0.37,0.14-0.69,0.41-0.96c0.27-0.27,0.59-0.41,0.96-0.41h1.52c0.37,0,0.69,0.14,0.96,0.41c0.27,0.27,0.41,0.59,0.41,0.96v3.26h4
		c0.37,0,0.69,0.14,0.96,0.41c0.27,0.27,0.41,0.59,0.41,0.96v1.26c0,0.37-0.14,0.69-0.41,0.96c-0.27,0.27-0.59,0.41-0.96,0.41h-4
		v6.07c0,0.94,0.17,1.67,0.5,2.2s0.83,0.8,1.5,0.8c0.42,0,0.81-0.06,1.18-0.19s0.65-0.19,0.85-0.19
		C41.8,31.08,42.18,31.32,42.45,31.82z"/>
	<path class="st0" d="M50.37,27.67c0,1.16,0.26,2.08,0.78,2.77c0.52,0.69,1.32,1.04,2.41,1.04c0.69,0,1.37-0.19,2.04-0.56
		s1.23-0.86,1.7-1.48v-9.69c0-0.37,0.14-0.69,0.41-0.96c0.27-0.27,0.59-0.41,0.96-0.41h1.52c0.37,0,0.69,0.14,0.96,0.41
		c0.27,0.27,0.41,0.59,0.41,0.96v13.91c0,0.37-0.14,0.69-0.41,0.96c-0.27,0.27-0.59,0.41-0.96,0.41h-1.52
		c-0.37,0-0.69-0.13-0.96-0.41c-0.27-0.27-0.41-0.59-0.41-0.96V33c-0.57,0.69-1.3,1.27-2.2,1.74c-0.9,0.47-1.94,0.7-3.13,0.7
		c-0.81,0-1.58-0.14-2.29-0.41c-0.72-0.27-1.34-0.69-1.87-1.26c-0.53-0.57-0.94-1.29-1.24-2.18s-0.44-1.9-0.44-3.03v-8.81
		c0-0.37,0.14-0.69,0.41-0.96c0.27-0.27,0.59-0.41,0.96-0.41H49c0.37,0,0.69,0.14,0.96,0.41c0.27,0.27,0.41,0.59,0.41,0.96V27.67z"
		/>
	<path class="st0" d="M79.23,9.14h1.52c0.37,0,0.69,0.14,0.96,0.41c0.27,0.27,0.41,0.59,0.41,0.96v23.16c0,0.37-0.14,0.69-0.41,0.96
		s-0.59,0.41-0.96,0.41h-1.52c-0.37,0-0.69-0.13-0.96-0.41c-0.27-0.27-0.41-0.59-0.41-0.96V33.3c-1.28,1.36-2.87,2.04-4.77,2.04
		c-2.37,0-4.27-0.77-5.7-2.31c-1.43-1.54-2.15-3.58-2.15-6.12c0-0.94,0.15-1.92,0.44-2.94c0.3-1.02,0.86-2.03,1.68-3.02
		c0.83-0.99,1.87-1.73,3.15-2.22c1.27-0.49,2.56-0.74,3.87-0.74c1.41,0,2.56,0.27,3.48,0.81V10.5c0-0.37,0.14-0.69,0.41-0.96
		C78.54,9.27,78.86,9.14,79.23,9.14z M77.86,29.67v-6.7c-1.06-0.67-2.16-1-3.29-1c-0.94,0-1.81,0.25-2.63,0.74
		c-0.81,0.49-1.38,1.1-1.68,1.83c-0.31,0.73-0.46,1.46-0.46,2.2c0,1.04,0.23,1.93,0.7,2.68c0.47,0.75,1.03,1.26,1.68,1.54
		c0.65,0.27,1.25,0.41,1.79,0.41c0.54,0,1.17-0.12,1.87-0.37C76.55,30.76,77.22,30.31,77.86,29.67z"/>
	<path class="st0" d="M89.7,9.91c0.64,0,1.21,0.23,1.7,0.7c0.49,0.47,0.74,1.06,0.74,1.78c0,0.79-0.25,1.43-0.74,1.92
		c-0.49,0.49-1.06,0.74-1.7,0.74c-0.74,0-1.37-0.24-1.89-0.72s-0.78-1.13-0.78-1.94c0-0.72,0.26-1.31,0.78-1.78
		C88.33,10.15,88.96,9.91,89.7,9.91z M88.85,18.39h1.52c0.37,0,0.69,0.14,0.96,0.41c0.27,0.27,0.41,0.59,0.41,0.96v13.91
		c0,0.37-0.14,0.69-0.41,0.96c-0.27,0.27-0.59,0.41-0.96,0.41h-1.52c-0.37,0-0.69-0.13-0.96-0.41s-0.41-0.59-0.41-0.96V19.75
		c0-0.37,0.14-0.69,0.41-0.96C88.16,18.52,88.48,18.39,88.85,18.39z"/>
	<path class="st0" d="M105.13,35.44c-1.33,0-2.57-0.22-3.7-0.65c-1.14-0.43-2.1-1.04-2.89-1.83c-0.79-0.79-1.4-1.72-1.83-2.79
		c-0.43-1.07-0.65-2.23-0.65-3.46s0.22-2.39,0.65-3.46c0.43-1.07,1.04-2,1.83-2.79c0.79-0.79,1.75-1.4,2.89-1.83
		c1.13-0.43,2.37-0.65,3.7-0.65c1.33,0,2.56,0.22,3.7,0.65c1.13,0.43,2.1,1.04,2.89,1.83c0.79,0.79,1.4,1.72,1.83,2.79
		c0.43,1.07,0.65,2.23,0.65,3.46s-0.22,2.39-0.65,3.46c-0.43,1.07-1.04,2-1.83,2.79c-0.79,0.79-1.75,1.4-2.89,1.83
		S106.46,35.44,105.13,35.44z M105.13,21.97c-0.91,0-1.74,0.25-2.48,0.74c-0.74,0.49-1.26,1.1-1.57,1.83
		c-0.31,0.73-0.46,1.45-0.46,2.16c0,1.38,0.43,2.52,1.29,3.42s1.94,1.35,3.22,1.35c1.33,0,2.42-0.44,3.27-1.31
		c0.85-0.88,1.28-2.03,1.28-3.46c0-0.64-0.15-1.34-0.44-2.09c-0.3-0.75-0.82-1.38-1.57-1.89C106.91,22.23,106.07,21.97,105.13,21.97
		z"/>
	<path class="st0" d="M139.95,29.04v4.63c0,0.37-0.14,0.69-0.41,0.96s-0.59,0.41-0.96,0.41h-1.52c-0.37,0-0.69-0.13-0.96-0.41
		s-0.41-0.59-0.41-0.96v-4.63h-10.58c-0.37,0-0.69-0.13-0.96-0.41c-0.27-0.27-0.41-0.55-0.41-0.85v-0.74c0-0.25,0.03-0.52,0.09-0.81
		c0.06-0.3,0.31-0.81,0.76-1.55l8.51-14.32c0.22-0.37,0.5-0.67,0.85-0.89c0.34-0.22,0.71-0.33,1.11-0.33h1.52
		c0.32,0,0.6,0.12,0.85,0.37c0.25,0.25,0.37,0.52,0.37,0.81c0,0.22-0.06,0.43-0.18,0.63l-8.25,13.84h6.33v-5.03
		c0-0.37,0.13-0.69,0.41-0.96c0.27-0.27,0.59-0.41,0.96-0.41h1.52c0.37,0,0.69,0.14,0.96,0.41c0.27,0.27,0.41,0.59,0.41,0.96v5.03
		h1.96c0.37,0,0.69,0.14,0.96,0.41s0.41,0.59,0.41,0.96v1.52c0,0.37-0.14,0.69-0.41,0.96s-0.59,0.41-0.96,0.41H139.95z"/>
	<path class="st0" d="M145.76,22.09c0-1.97,0.18-3.77,0.54-5.4c0.36-1.63,0.89-3.03,1.61-4.2c0.71-1.17,1.63-2.07,2.74-2.7
		c1.11-0.63,2.38-0.94,3.81-0.94c0.69,0,1.44,0.1,2.26,0.31c0.81,0.21,1.6,0.6,2.35,1.17c0.75,0.57,1.44,1.36,2.05,2.39
		c0.62,1.02,1.1,2.35,1.46,3.98s0.54,3.43,0.54,5.4c0,1.97-0.17,3.77-0.52,5.4c-0.35,1.63-0.87,3.03-1.57,4.2s-1.6,2.07-2.7,2.7
		s-2.36,0.94-3.79,0.94c-1.43,0-2.71-0.31-3.83-0.94s-2.05-1.53-2.77-2.7c-0.73-1.17-1.27-2.57-1.63-4.2
		C145.93,25.86,145.76,24.06,145.76,22.09z M150.31,22.09c0,6.19,1.41,9.29,4.22,9.29c1.46,0,2.5-0.74,3.13-2.22
		c0.63-1.48,0.94-3.83,0.94-7.07c0-3.21-0.33-5.55-0.98-7.03s-1.71-2.22-3.16-2.22c-1.43,0-2.48,0.75-3.15,2.26
		C150.64,16.6,150.31,18.93,150.31,22.09z"/>
	<path class="st0" d="M181.24,29.04v4.63c0,0.37-0.14,0.69-0.41,0.96s-0.59,0.41-0.96,0.41h-1.52c-0.37,0-0.69-0.13-0.96-0.41
		s-0.41-0.59-0.41-0.96v-4.63H166.4c-0.37,0-0.69-0.13-0.96-0.41c-0.27-0.27-0.41-0.55-0.41-0.85v-0.74c0-0.25,0.03-0.52,0.09-0.81
		c0.06-0.3,0.31-0.81,0.76-1.55l8.51-14.32c0.22-0.37,0.5-0.67,0.85-0.89c0.34-0.22,0.71-0.33,1.11-0.33h1.52
		c0.32,0,0.6,0.12,0.85,0.37c0.25,0.25,0.37,0.52,0.37,0.81c0,0.22-0.06,0.43-0.18,0.63l-8.25,13.84h6.33v-5.03
		c0-0.37,0.13-0.69,0.41-0.96c0.27-0.27,0.59-0.41,0.96-0.41h1.52c0.37,0,0.69,0.14,0.96,0.41c0.27,0.27,0.41,0.59,0.41,0.96v5.03
		h1.96c0.37,0,0.69,0.14,0.96,0.41s0.41,0.59,0.41,0.96v1.52c0,0.37-0.14,0.69-0.41,0.96s-0.59,0.41-0.96,0.41H181.24z"/>
</g>
<g>
	<path d="M11.89,30.41l1.22-1.29c0.27-0.27,0.58-0.41,0.92-0.41c0.37,0,0.72,0.14,1.04,0.41c1.68,1.38,3.24,2.07,4.7,2.07
		c0.79,0,1.5-0.15,2.13-0.46c0.63-0.31,1.06-0.7,1.29-1.18s0.35-0.94,0.35-1.39c0-0.74-0.27-1.42-0.81-2.04
		c-0.54-0.62-1.7-1.33-3.46-2.13c-1.76-0.8-3.07-1.47-3.92-2c-0.85-0.53-1.54-1.13-2.07-1.79c-0.53-0.67-0.91-1.37-1.13-2.11
		c-0.22-0.74-0.33-1.48-0.33-2.22c0-1.21,0.32-2.39,0.96-3.53c0.64-1.15,1.61-2.03,2.9-2.66c1.29-0.63,2.69-0.94,4.2-0.94
		c2.24,0,4.3,0.53,6.18,1.59c0.2,0.1,0.36,0.27,0.48,0.5c0.12,0.23,0.19,0.46,0.19,0.68c0,0.22-0.06,0.43-0.19,0.63l-0.7,1.22
		c-0.15,0.22-0.33,0.4-0.55,0.54c-0.22,0.14-0.44,0.2-0.67,0.2c-0.25,0-0.47-0.05-0.67-0.15c-1.31-0.64-2.54-0.96-3.7-0.96
		c-1.11,0-1.99,0.27-2.65,0.8c-0.65,0.53-0.98,1.21-0.98,2.05c0,0.62,0.15,1.17,0.46,1.65s0.76,0.92,1.37,1.31
		c0.6,0.4,1.61,0.9,3.02,1.52c1.41,0.62,2.53,1.18,3.37,1.68c0.84,0.51,1.52,1.09,2.05,1.76c0.53,0.67,0.91,1.37,1.13,2.11
		c0.22,0.74,0.33,1.49,0.33,2.26c0,1.06-0.22,2.04-0.67,2.94c-0.44,0.9-1.06,1.68-1.85,2.33c-0.79,0.65-1.71,1.16-2.77,1.52
		s-2.18,0.54-3.37,0.54c-1.43,0-2.76-0.24-4-0.72c-1.23-0.48-2.45-1.29-3.66-2.42c-0.32-0.27-0.48-0.63-0.48-1.07
		C11.56,30.9,11.67,30.63,11.89,30.41z"/>
	<path d="M41.45,31.82l0.37,0.67c0.12,0.2,0.18,0.41,0.18,0.63c0,0.22-0.06,0.45-0.17,0.69c-0.11,0.23-0.27,0.4-0.46,0.5
		c-1.26,0.74-2.65,1.11-4.18,1.11c-1.83,0-3.15-0.57-3.96-1.7c-0.81-1.13-1.22-2.8-1.22-4.99V15.13c0-0.37,0.14-0.69,0.41-0.96
		c0.27-0.27,0.59-0.41,0.96-0.41h1.52c0.37,0,0.69,0.14,0.96,0.41c0.27,0.27,0.41,0.59,0.41,0.96v3.26h4c0.37,0,0.69,0.14,0.96,0.41
		c0.27,0.27,0.41,0.59,0.41,0.96v1.26c0,0.37-0.14,0.69-0.41,0.96c-0.27,0.27-0.59,0.41-0.96,0.41h-4v6.07c0,0.94,0.17,1.67,0.5,2.2
		s0.83,0.8,1.5,0.8c0.42,0,0.81-0.06,1.18-0.19s0.65-0.19,0.85-0.19C40.8,31.08,41.18,31.32,41.45,31.82z"/>
	<path d="M49.37,27.67c0,1.16,0.26,2.08,0.78,2.77c0.52,0.69,1.32,1.04,2.41,1.04c0.69,0,1.37-0.19,2.04-0.56s1.23-0.86,1.7-1.48
		v-9.69c0-0.37,0.14-0.69,0.41-0.96c0.27-0.27,0.59-0.41,0.96-0.41h1.52c0.37,0,0.69,0.14,0.96,0.41c0.27,0.27,0.41,0.59,0.41,0.96
		v13.91c0,0.37-0.14,0.69-0.41,0.96c-0.27,0.27-0.59,0.41-0.96,0.41h-1.52c-0.37,0-0.69-0.13-0.96-0.41
		c-0.27-0.27-0.41-0.59-0.41-0.96V33c-0.57,0.69-1.3,1.27-2.2,1.74c-0.9,0.47-1.94,0.7-3.13,0.7c-0.81,0-1.58-0.14-2.29-0.41
		c-0.72-0.27-1.34-0.69-1.87-1.26c-0.53-0.57-0.94-1.29-1.24-2.18s-0.44-1.9-0.44-3.03v-8.81c0-0.37,0.14-0.69,0.41-0.96
		c0.27-0.27,0.59-0.41,0.96-0.41H48c0.37,0,0.69,0.14,0.96,0.41c0.27,0.27,0.41,0.59,0.41,0.96V27.67z"/>
	<path d="M78.23,9.14h1.52c0.37,0,0.69,0.14,0.96,0.41c0.27,0.27,0.41,0.59,0.41,0.96v23.16c0,0.37-0.14,0.69-0.41,0.96
		s-0.59,0.41-0.96,0.41h-1.52c-0.37,0-0.69-0.13-0.96-0.41c-0.27-0.27-0.41-0.59-0.41-0.96V33.3c-1.28,1.36-2.87,2.04-4.77,2.04
		c-2.37,0-4.27-0.77-5.7-2.31c-1.43-1.54-2.15-3.58-2.15-6.12c0-0.94,0.15-1.92,0.44-2.94c0.3-1.02,0.86-2.03,1.68-3.02
		c0.83-0.99,1.87-1.73,3.15-2.22c1.27-0.49,2.56-0.74,3.87-0.74c1.41,0,2.56,0.27,3.48,0.81V10.5c0-0.37,0.14-0.69,0.41-0.96
		C77.54,9.27,77.86,9.14,78.23,9.14z M76.86,29.67v-6.7c-1.06-0.67-2.16-1-3.29-1c-0.94,0-1.81,0.25-2.63,0.74
		c-0.81,0.49-1.38,1.1-1.68,1.83c-0.31,0.73-0.46,1.46-0.46,2.2c0,1.04,0.23,1.93,0.7,2.68c0.47,0.75,1.03,1.26,1.68,1.54
		c0.65,0.27,1.25,0.41,1.79,0.41c0.54,0,1.17-0.12,1.87-0.37C75.55,30.76,76.22,30.31,76.86,29.67z"/>
	<path d="M88.7,9.91c0.64,0,1.21,0.23,1.7,0.7c0.49,0.47,0.74,1.06,0.74,1.78c0,0.79-0.25,1.43-0.74,1.92
		c-0.49,0.49-1.06,0.74-1.7,0.74c-0.74,0-1.37-0.24-1.89-0.72s-0.78-1.13-0.78-1.94c0-0.72,0.26-1.31,0.78-1.78
		C87.33,10.15,87.96,9.91,88.7,9.91z M87.85,18.39h1.52c0.37,0,0.69,0.14,0.96,0.41c0.27,0.27,0.41,0.59,0.41,0.96v13.91
		c0,0.37-0.14,0.69-0.41,0.96c-0.27,0.27-0.59,0.41-0.96,0.41h-1.52c-0.37,0-0.69-0.13-0.96-0.41s-0.41-0.59-0.41-0.96V19.75
		c0-0.37,0.14-0.69,0.41-0.96C87.16,18.52,87.48,18.39,87.85,18.39z"/>
	<path d="M104.13,35.44c-1.33,0-2.57-0.22-3.7-0.65c-1.14-0.43-2.1-1.04-2.89-1.83c-0.79-0.79-1.4-1.72-1.83-2.79
		c-0.43-1.07-0.65-2.23-0.65-3.46s0.22-2.39,0.65-3.46c0.43-1.07,1.04-2,1.83-2.79c0.79-0.79,1.75-1.4,2.89-1.83
		c1.13-0.43,2.37-0.65,3.7-0.65c1.33,0,2.56,0.22,3.7,0.65c1.13,0.43,2.1,1.04,2.89,1.83c0.79,0.79,1.4,1.72,1.83,2.79
		c0.43,1.07,0.65,2.23,0.65,3.46s-0.22,2.39-0.65,3.46c-0.43,1.07-1.04,2-1.83,2.79c-0.79,0.79-1.75,1.4-2.89,1.83
		S105.46,35.44,104.13,35.44z M104.13,21.97c-0.91,0-1.74,0.25-2.48,0.74c-0.74,0.49-1.26,1.1-1.57,1.83
		c-0.31,0.73-0.46,1.45-0.46,2.16c0,1.38,0.43,2.52,1.29,3.42s1.94,1.35,3.22,1.35c1.33,0,2.42-0.44,3.27-1.31
		c0.85-0.88,1.28-2.03,1.28-3.46c0-0.64-0.15-1.34-0.44-2.09c-0.3-0.75-0.82-1.38-1.57-1.89C105.91,22.23,105.07,21.97,104.13,21.97
		z"/>
	<path d="M138.95,29.04v4.63c0,0.37-0.14,0.69-0.41,0.96s-0.59,0.41-0.96,0.41h-1.52c-0.37,0-0.69-0.13-0.96-0.41
		s-0.41-0.59-0.41-0.96v-4.63h-10.58c-0.37,0-0.69-0.13-0.96-0.41c-0.27-0.27-0.41-0.55-0.41-0.85v-0.74c0-0.25,0.03-0.52,0.09-0.81
		c0.06-0.3,0.31-0.81,0.76-1.55l8.51-14.32c0.22-0.37,0.5-0.67,0.85-0.89c0.34-0.22,0.71-0.33,1.11-0.33h1.52
		c0.32,0,0.6,0.12,0.85,0.37c0.25,0.25,0.37,0.52,0.37,0.81c0,0.22-0.06,0.43-0.18,0.63l-8.25,13.84h6.33v-5.03
		c0-0.37,0.13-0.69,0.41-0.96c0.27-0.27,0.59-0.41,0.96-0.41h1.52c0.37,0,0.69,0.14,0.96,0.41c0.27,0.27,0.41,0.59,0.41,0.96v5.03
		h1.96c0.37,0,0.69,0.14,0.96,0.41s0.41,0.59,0.41,0.96v1.52c0,0.37-0.14,0.69-0.41,0.96s-0.59,0.41-0.96,0.41H138.95z"/>
	<path d="M144.76,22.09c0-1.97,0.18-3.77,0.54-5.4c0.36-1.63,0.89-3.03,1.61-4.2c0.71-1.17,1.63-2.07,2.74-2.7
		c1.11-0.63,2.38-0.94,3.81-0.94c0.69,0,1.44,0.1,2.26,0.31c0.81,0.21,1.6,0.6,2.35,1.17c0.75,0.57,1.44,1.36,2.05,2.39
		c0.62,1.02,1.1,2.35,1.46,3.98s0.54,3.43,0.54,5.4c0,1.97-0.17,3.77-0.52,5.4c-0.35,1.63-0.87,3.03-1.57,4.2s-1.6,2.07-2.7,2.7
		s-2.36,0.94-3.79,0.94c-1.43,0-2.71-0.31-3.83-0.94s-2.05-1.53-2.77-2.7c-0.73-1.17-1.27-2.57-1.63-4.2
		C144.93,25.86,144.76,24.06,144.76,22.09z M149.31,22.09c0,6.19,1.41,9.29,4.22,9.29c1.46,0,2.5-0.74,3.13-2.22
		c0.63-1.48,0.94-3.83,0.94-7.07c0-3.21-0.33-5.55-0.98-7.03s-1.71-2.22-3.16-2.22c-1.43,0-2.48,0.75-3.15,2.26
		C149.64,16.6,149.31,18.93,149.31,22.09z"/>
	<path d="M180.24,29.04v4.63c0,0.37-0.14,0.69-0.41,0.96s-0.59,0.41-0.96,0.41h-1.52c-0.37,0-0.69-0.13-0.96-0.41
		s-0.41-0.59-0.41-0.96v-4.63H165.4c-0.37,0-0.69-0.13-0.96-0.41c-0.27-0.27-0.41-0.55-0.41-0.85v-0.74c0-0.25,0.03-0.52,0.09-0.81
		c0.06-0.3,0.31-0.81,0.76-1.55l8.51-14.32c0.22-0.37,0.5-0.67,0.85-0.89c0.34-0.22,0.71-0.33,1.11-0.33h1.52
		c0.32,0,0.6,0.12,0.85,0.37c0.25,0.25,0.37,0.52,0.37,0.81c0,0.22-0.06,0.43-0.18,0.63l-8.25,13.84h6.33v-5.03
		c0-0.37,0.13-0.69,0.41-0.96c0.27-0.27,0.59-0.41,0.96-0.41h1.52c0.37,0,0.69,0.14,0.96,0.41c0.27,0.27,0.41,0.59,0.41,0.96v5.03
		h1.96c0.37,0,0.69,0.14,0.96,0.41s0.41,0.59,0.41,0.96v1.52c0,0.37-0.14,0.69-0.41,0.96s-0.59,0.41-0.96,0.41H180.24z"/>
</g>
</svg>
